<?xml version="1.0" encoding="utf-8" standalone="no"?>
<!DOCTYPE svg PUBLIC "-//W3C//DTD SVG 1.1//EN"
  "http://www.w3.org/Graphics/SVG/1.1/DTD/svg11.dtd">
<svg xmlns:xlink="http://www.w3.org/1999/xlink" width="1008pt" height="648pt" viewBox="0 0 1008 648" xmlns="http://www.w3.org/2000/svg" version="1.1">
 <metadata>
  <rdf:RDF xmlns:dc="http://purl.org/dc/elements/1.1/" xmlns:cc="http://creativecommons.org/ns#" xmlns:rdf="http://www.w3.org/1999/02/22-rdf-syntax-ns#">
   <cc:Work>
    <dc:type rdf:resource="http://purl.org/dc/dcmitype/StillImage"/>
    <dc:date>2023-06-03T20:25:13.848338</dc:date>
    <dc:format>image/svg+xml</dc:format>
    <dc:creator>
     <cc:Agent>
      <dc:title>Matplotlib v3.7.1, https://matplotlib.org/</dc:title>
     </cc:Agent>
    </dc:creator>
   </cc:Work>
  </rdf:RDF>
 </metadata>
 <defs>
  <style type="text/css">*{stroke-linejoin: round; stroke-linecap: butt}</style>
 </defs>
 <g id="figure_1">
  <g id="patch_1">
   <path d="M 0 648 
L 1008 648 
L 1008 0 
L 0 0 
z
" style="fill: #ffffff"/>
  </g>
  <g id="axes_1">
   <g id="patch_2">
    <path d="M 50.4 602.64 
L 987.84 602.64 
L 987.84 97.2 
L 50.4 97.2 
z
" style="fill: #e5e5e5"/>
   </g>
   <g id="matplotlib.axis_1">
    <g id="xtick_1">
     <g id="line2d_1">
      <defs>
       <path id="m30c4c0f21b" d="M 0 0 
L 0 5 
" style="stroke: #000000; stroke-width: 2"/>
      </defs>
      <g>
       <use xlink:href="#m30c4c0f21b" x="77.707144" y="602.64" style="stroke: #000000; stroke-width: 2"/>
      </g>
     </g>
     <g id="text_1">
      <!-- 128 -->
      <g transform="translate(64.345894 624.277812) scale(0.14 -0.14)">
       <defs>
        <path id="DejaVuSans-31" d="M 794 531 
L 1825 531 
L 1825 4091 
L 703 3866 
L 703 4441 
L 1819 4666 
L 2450 4666 
L 2450 531 
L 3481 531 
L 3481 0 
L 794 0 
L 794 531 
z
" transform="scale(0.015625)"/>
        <path id="DejaVuSans-32" d="M 1228 531 
L 3431 531 
L 3431 0 
L 469 0 
L 469 531 
Q 828 903 1448 1529 
Q 2069 2156 2228 2338 
Q 2531 2678 2651 2914 
Q 2772 3150 2772 3378 
Q 2772 3750 2511 3984 
Q 2250 4219 1831 4219 
Q 1534 4219 1204 4116 
Q 875 4013 500 3803 
L 500 4441 
Q 881 4594 1212 4672 
Q 1544 4750 1819 4750 
Q 2544 4750 2975 4387 
Q 3406 4025 3406 3419 
Q 3406 3131 3298 2873 
Q 3191 2616 2906 2266 
Q 2828 2175 2409 1742 
Q 1991 1309 1228 531 
z
" transform="scale(0.015625)"/>
        <path id="DejaVuSans-38" d="M 2034 2216 
Q 1584 2216 1326 1975 
Q 1069 1734 1069 1313 
Q 1069 891 1326 650 
Q 1584 409 2034 409 
Q 2484 409 2743 651 
Q 3003 894 3003 1313 
Q 3003 1734 2745 1975 
Q 2488 2216 2034 2216 
z
M 1403 2484 
Q 997 2584 770 2862 
Q 544 3141 544 3541 
Q 544 4100 942 4425 
Q 1341 4750 2034 4750 
Q 2731 4750 3128 4425 
Q 3525 4100 3525 3541 
Q 3525 3141 3298 2862 
Q 3072 2584 2669 2484 
Q 3125 2378 3379 2068 
Q 3634 1759 3634 1313 
Q 3634 634 3220 271 
Q 2806 -91 2034 -91 
Q 1263 -91 848 271 
Q 434 634 434 1313 
Q 434 1759 690 2068 
Q 947 2378 1403 2484 
z
M 1172 3481 
Q 1172 3119 1398 2916 
Q 1625 2713 2034 2713 
Q 2441 2713 2670 2916 
Q 2900 3119 2900 3481 
Q 2900 3844 2670 4047 
Q 2441 4250 2034 4250 
Q 1625 4250 1398 4047 
Q 1172 3844 1172 3481 
z
" transform="scale(0.015625)"/>
       </defs>
       <use xlink:href="#DejaVuSans-31"/>
       <use xlink:href="#DejaVuSans-32" x="63.623047"/>
       <use xlink:href="#DejaVuSans-38" x="127.246094"/>
      </g>
     </g>
    </g>
    <g id="xtick_2">
     <g id="line2d_2">
      <g>
       <use xlink:href="#m30c4c0f21b" x="370.98734" y="602.64" style="stroke: #000000; stroke-width: 2"/>
      </g>
     </g>
     <g id="text_2">
      <!-- 256 -->
      <g transform="translate(357.62609 624.277812) scale(0.14 -0.14)">
       <defs>
        <path id="DejaVuSans-35" d="M 691 4666 
L 3169 4666 
L 3169 4134 
L 1269 4134 
L 1269 2991 
Q 1406 3038 1543 3061 
Q 1681 3084 1819 3084 
Q 2600 3084 3056 2656 
Q 3513 2228 3513 1497 
Q 3513 744 3044 326 
Q 2575 -91 1722 -91 
Q 1428 -91 1123 -41 
Q 819 9 494 109 
L 494 744 
Q 775 591 1075 516 
Q 1375 441 1709 441 
Q 2250 441 2565 725 
Q 2881 1009 2881 1497 
Q 2881 1984 2565 2268 
Q 2250 2553 1709 2553 
Q 1456 2553 1204 2497 
Q 953 2441 691 2322 
L 691 4666 
z
" transform="scale(0.015625)"/>
        <path id="DejaVuSans-36" d="M 2113 2584 
Q 1688 2584 1439 2293 
Q 1191 2003 1191 1497 
Q 1191 994 1439 701 
Q 1688 409 2113 409 
Q 2538 409 2786 701 
Q 3034 994 3034 1497 
Q 3034 2003 2786 2293 
Q 2538 2584 2113 2584 
z
M 3366 4563 
L 3366 3988 
Q 3128 4100 2886 4159 
Q 2644 4219 2406 4219 
Q 1781 4219 1451 3797 
Q 1122 3375 1075 2522 
Q 1259 2794 1537 2939 
Q 1816 3084 2150 3084 
Q 2853 3084 3261 2657 
Q 3669 2231 3669 1497 
Q 3669 778 3244 343 
Q 2819 -91 2113 -91 
Q 1303 -91 875 529 
Q 447 1150 447 2328 
Q 447 3434 972 4092 
Q 1497 4750 2381 4750 
Q 2619 4750 2861 4703 
Q 3103 4656 3366 4563 
z
" transform="scale(0.015625)"/>
       </defs>
       <use xlink:href="#DejaVuSans-32"/>
       <use xlink:href="#DejaVuSans-35" x="63.623047"/>
       <use xlink:href="#DejaVuSans-36" x="127.246094"/>
      </g>
     </g>
    </g>
    <g id="xtick_3">
     <g id="line2d_3">
      <g>
       <use xlink:href="#m30c4c0f21b" x="664.267536" y="602.64" style="stroke: #000000; stroke-width: 2"/>
      </g>
     </g>
     <g id="text_3">
      <!-- 512 -->
      <g transform="translate(650.906286 624.277812) scale(0.14 -0.14)">
       <use xlink:href="#DejaVuSans-35"/>
       <use xlink:href="#DejaVuSans-31" x="63.623047"/>
       <use xlink:href="#DejaVuSans-32" x="127.246094"/>
      </g>
     </g>
    </g>
    <g id="xtick_4">
     <g id="line2d_4">
      <g>
       <use xlink:href="#m30c4c0f21b" x="957.547731" y="602.64" style="stroke: #000000; stroke-width: 2"/>
      </g>
     </g>
     <g id="text_4">
      <!-- 1024 -->
      <g transform="translate(939.732731 624.277812) scale(0.14 -0.14)">
       <defs>
        <path id="DejaVuSans-30" d="M 2034 4250 
Q 1547 4250 1301 3770 
Q 1056 3291 1056 2328 
Q 1056 1369 1301 889 
Q 1547 409 2034 409 
Q 2525 409 2770 889 
Q 3016 1369 3016 2328 
Q 3016 3291 2770 3770 
Q 2525 4250 2034 4250 
z
M 2034 4750 
Q 2819 4750 3233 4129 
Q 3647 3509 3647 2328 
Q 3647 1150 3233 529 
Q 2819 -91 2034 -91 
Q 1250 -91 836 529 
Q 422 1150 422 2328 
Q 422 3509 836 4129 
Q 1250 4750 2034 4750 
z
" transform="scale(0.015625)"/>
        <path id="DejaVuSans-34" d="M 2419 4116 
L 825 1625 
L 2419 1625 
L 2419 4116 
z
M 2253 4666 
L 3047 4666 
L 3047 1625 
L 3713 1625 
L 3713 1100 
L 3047 1100 
L 3047 0 
L 2419 0 
L 2419 1100 
L 313 1100 
L 313 1709 
L 2253 4666 
z
" transform="scale(0.015625)"/>
       </defs>
       <use xlink:href="#DejaVuSans-31"/>
       <use xlink:href="#DejaVuSans-30" x="63.623047"/>
       <use xlink:href="#DejaVuSans-32" x="127.246094"/>
       <use xlink:href="#DejaVuSans-34" x="190.869141"/>
      </g>
     </g>
    </g>
    <g id="text_5">
     <!-- Input Size -->
     <g transform="translate(484.4 641.827188) scale(0.14 -0.14)">
      <defs>
       <path id="DejaVuSans-49" d="M 628 4666 
L 1259 4666 
L 1259 0 
L 628 0 
L 628 4666 
z
" transform="scale(0.015625)"/>
       <path id="DejaVuSans-6e" d="M 3513 2113 
L 3513 0 
L 2938 0 
L 2938 2094 
Q 2938 2591 2744 2837 
Q 2550 3084 2163 3084 
Q 1697 3084 1428 2787 
Q 1159 2491 1159 1978 
L 1159 0 
L 581 0 
L 581 3500 
L 1159 3500 
L 1159 2956 
Q 1366 3272 1645 3428 
Q 1925 3584 2291 3584 
Q 2894 3584 3203 3211 
Q 3513 2838 3513 2113 
z
" transform="scale(0.015625)"/>
       <path id="DejaVuSans-70" d="M 1159 525 
L 1159 -1331 
L 581 -1331 
L 581 3500 
L 1159 3500 
L 1159 2969 
Q 1341 3281 1617 3432 
Q 1894 3584 2278 3584 
Q 2916 3584 3314 3078 
Q 3713 2572 3713 1747 
Q 3713 922 3314 415 
Q 2916 -91 2278 -91 
Q 1894 -91 1617 61 
Q 1341 213 1159 525 
z
M 3116 1747 
Q 3116 2381 2855 2742 
Q 2594 3103 2138 3103 
Q 1681 3103 1420 2742 
Q 1159 2381 1159 1747 
Q 1159 1113 1420 752 
Q 1681 391 2138 391 
Q 2594 391 2855 752 
Q 3116 1113 3116 1747 
z
" transform="scale(0.015625)"/>
       <path id="DejaVuSans-75" d="M 544 1381 
L 544 3500 
L 1119 3500 
L 1119 1403 
Q 1119 906 1312 657 
Q 1506 409 1894 409 
Q 2359 409 2629 706 
Q 2900 1003 2900 1516 
L 2900 3500 
L 3475 3500 
L 3475 0 
L 2900 0 
L 2900 538 
Q 2691 219 2414 64 
Q 2138 -91 1772 -91 
Q 1169 -91 856 284 
Q 544 659 544 1381 
z
M 1991 3584 
L 1991 3584 
z
" transform="scale(0.015625)"/>
       <path id="DejaVuSans-74" d="M 1172 4494 
L 1172 3500 
L 2356 3500 
L 2356 3053 
L 1172 3053 
L 1172 1153 
Q 1172 725 1289 603 
Q 1406 481 1766 481 
L 2356 481 
L 2356 0 
L 1766 0 
Q 1100 0 847 248 
Q 594 497 594 1153 
L 594 3053 
L 172 3053 
L 172 3500 
L 594 3500 
L 594 4494 
L 1172 4494 
z
" transform="scale(0.015625)"/>
       <path id="DejaVuSans-20" transform="scale(0.015625)"/>
       <path id="DejaVuSans-53" d="M 3425 4513 
L 3425 3897 
Q 3066 4069 2747 4153 
Q 2428 4238 2131 4238 
Q 1616 4238 1336 4038 
Q 1056 3838 1056 3469 
Q 1056 3159 1242 3001 
Q 1428 2844 1947 2747 
L 2328 2669 
Q 3034 2534 3370 2195 
Q 3706 1856 3706 1288 
Q 3706 609 3251 259 
Q 2797 -91 1919 -91 
Q 1588 -91 1214 -16 
Q 841 59 441 206 
L 441 856 
Q 825 641 1194 531 
Q 1563 422 1919 422 
Q 2459 422 2753 634 
Q 3047 847 3047 1241 
Q 3047 1584 2836 1778 
Q 2625 1972 2144 2069 
L 1759 2144 
Q 1053 2284 737 2584 
Q 422 2884 422 3419 
Q 422 4038 858 4394 
Q 1294 4750 2059 4750 
Q 2388 4750 2728 4690 
Q 3069 4631 3425 4513 
z
" transform="scale(0.015625)"/>
       <path id="DejaVuSans-69" d="M 603 3500 
L 1178 3500 
L 1178 0 
L 603 0 
L 603 3500 
z
M 603 4863 
L 1178 4863 
L 1178 4134 
L 603 4134 
L 603 4863 
z
" transform="scale(0.015625)"/>
       <path id="DejaVuSans-7a" d="M 353 3500 
L 3084 3500 
L 3084 2975 
L 922 459 
L 3084 459 
L 3084 0 
L 275 0 
L 275 525 
L 2438 3041 
L 353 3041 
L 353 3500 
z
" transform="scale(0.015625)"/>
       <path id="DejaVuSans-65" d="M 3597 1894 
L 3597 1613 
L 953 1613 
Q 991 1019 1311 708 
Q 1631 397 2203 397 
Q 2534 397 2845 478 
Q 3156 559 3463 722 
L 3463 178 
Q 3153 47 2828 -22 
Q 2503 -91 2169 -91 
Q 1331 -91 842 396 
Q 353 884 353 1716 
Q 353 2575 817 3079 
Q 1281 3584 2069 3584 
Q 2775 3584 3186 3129 
Q 3597 2675 3597 1894 
z
M 3022 2063 
Q 3016 2534 2758 2815 
Q 2500 3097 2075 3097 
Q 1594 3097 1305 2825 
Q 1016 2553 972 2059 
L 3022 2063 
z
" transform="scale(0.015625)"/>
      </defs>
      <use xlink:href="#DejaVuSans-49"/>
      <use xlink:href="#DejaVuSans-6e" x="29.492188"/>
      <use xlink:href="#DejaVuSans-70" x="92.871094"/>
      <use xlink:href="#DejaVuSans-75" x="156.347656"/>
      <use xlink:href="#DejaVuSans-74" x="219.726562"/>
      <use xlink:href="#DejaVuSans-20" x="258.935547"/>
      <use xlink:href="#DejaVuSans-53" x="290.722656"/>
      <use xlink:href="#DejaVuSans-69" x="354.199219"/>
      <use xlink:href="#DejaVuSans-7a" x="381.982422"/>
      <use xlink:href="#DejaVuSans-65" x="434.472656"/>
     </g>
    </g>
   </g>
   <g id="matplotlib.axis_2">
    <g id="ytick_1">
     <g id="line2d_5">
      <path d="M 50.4 602.64 
L 987.84 602.64 
" clip-path="url(#p67984805fa)" style="fill: none; stroke: #ffffff; stroke-width: 2; stroke-linecap: square"/>
     </g>
     <g id="line2d_6"/>
     <g id="text_6">
      <!-- 0 -->
      <g transform="translate(31.4925 607.958906) scale(0.14 -0.14)">
       <use xlink:href="#DejaVuSans-30"/>
      </g>
     </g>
    </g>
    <g id="ytick_2">
     <g id="line2d_7">
      <path d="M 50.4 535.248 
L 987.84 535.248 
" clip-path="url(#p67984805fa)" style="fill: none; stroke: #ffffff; stroke-width: 2; stroke-linecap: square"/>
     </g>
     <g id="line2d_8"/>
     <g id="text_7">
      <!-- 200 -->
      <g transform="translate(13.6775 540.566906) scale(0.14 -0.14)">
       <use xlink:href="#DejaVuSans-32"/>
       <use xlink:href="#DejaVuSans-30" x="63.623047"/>
       <use xlink:href="#DejaVuSans-30" x="127.246094"/>
      </g>
     </g>
    </g>
    <g id="ytick_3">
     <g id="line2d_9">
      <path d="M 50.4 467.856 
L 987.84 467.856 
" clip-path="url(#p67984805fa)" style="fill: none; stroke: #ffffff; stroke-width: 2; stroke-linecap: square"/>
     </g>
     <g id="line2d_10"/>
     <g id="text_8">
      <!-- 400 -->
      <g transform="translate(13.6775 473.174906) scale(0.14 -0.14)">
       <use xlink:href="#DejaVuSans-34"/>
       <use xlink:href="#DejaVuSans-30" x="63.623047"/>
       <use xlink:href="#DejaVuSans-30" x="127.246094"/>
      </g>
     </g>
    </g>
    <g id="ytick_4">
     <g id="line2d_11">
      <path d="M 50.4 400.464 
L 987.84 400.464 
" clip-path="url(#p67984805fa)" style="fill: none; stroke: #ffffff; stroke-width: 2; stroke-linecap: square"/>
     </g>
     <g id="line2d_12"/>
     <g id="text_9">
      <!-- 600 -->
      <g transform="translate(13.6775 405.782906) scale(0.14 -0.14)">
       <use xlink:href="#DejaVuSans-36"/>
       <use xlink:href="#DejaVuSans-30" x="63.623047"/>
       <use xlink:href="#DejaVuSans-30" x="127.246094"/>
      </g>
     </g>
    </g>
    <g id="ytick_5">
     <g id="line2d_13">
      <path d="M 50.4 333.072 
L 987.84 333.072 
" clip-path="url(#p67984805fa)" style="fill: none; stroke: #ffffff; stroke-width: 2; stroke-linecap: square"/>
     </g>
     <g id="line2d_14"/>
     <g id="text_10">
      <!-- 800 -->
      <g transform="translate(13.6775 338.390906) scale(0.14 -0.14)">
       <use xlink:href="#DejaVuSans-38"/>
       <use xlink:href="#DejaVuSans-30" x="63.623047"/>
       <use xlink:href="#DejaVuSans-30" x="127.246094"/>
      </g>
     </g>
    </g>
    <g id="ytick_6">
     <g id="line2d_15">
      <path d="M 50.4 265.68 
L 987.84 265.68 
" clip-path="url(#p67984805fa)" style="fill: none; stroke: #ffffff; stroke-width: 2; stroke-linecap: square"/>
     </g>
     <g id="line2d_16"/>
     <g id="text_11">
      <!-- 1000 -->
      <g transform="translate(4.77 270.998906) scale(0.14 -0.14)">
       <use xlink:href="#DejaVuSans-31"/>
       <use xlink:href="#DejaVuSans-30" x="63.623047"/>
       <use xlink:href="#DejaVuSans-30" x="127.246094"/>
       <use xlink:href="#DejaVuSans-30" x="190.869141"/>
      </g>
     </g>
    </g>
    <g id="ytick_7">
     <g id="line2d_17">
      <path d="M 50.4 198.288 
L 987.84 198.288 
" clip-path="url(#p67984805fa)" style="fill: none; stroke: #ffffff; stroke-width: 2; stroke-linecap: square"/>
     </g>
     <g id="line2d_18"/>
     <g id="text_12">
      <!-- 1200 -->
      <g transform="translate(4.77 203.606906) scale(0.14 -0.14)">
       <use xlink:href="#DejaVuSans-31"/>
       <use xlink:href="#DejaVuSans-32" x="63.623047"/>
       <use xlink:href="#DejaVuSans-30" x="127.246094"/>
       <use xlink:href="#DejaVuSans-30" x="190.869141"/>
      </g>
     </g>
    </g>
    <g id="ytick_8">
     <g id="line2d_19">
      <path d="M 50.4 130.896 
L 987.84 130.896 
" clip-path="url(#p67984805fa)" style="fill: none; stroke: #ffffff; stroke-width: 2; stroke-linecap: square"/>
     </g>
     <g id="line2d_20"/>
     <g id="text_13">
      <!-- 1400 -->
      <g transform="translate(4.77 136.214906) scale(0.14 -0.14)">
       <use xlink:href="#DejaVuSans-31"/>
       <use xlink:href="#DejaVuSans-34" x="63.623047"/>
       <use xlink:href="#DejaVuSans-30" x="127.246094"/>
       <use xlink:href="#DejaVuSans-30" x="190.869141"/>
      </g>
     </g>
    </g>
    <g id="text_14">
     <!-- Runtime [Millisecond] -->
     <g transform="translate(23.439693 84.179638) scale(0.14 -0.14)">
      <defs>
       <path id="DejaVuSans-52" d="M 2841 2188 
Q 3044 2119 3236 1894 
Q 3428 1669 3622 1275 
L 4263 0 
L 3584 0 
L 2988 1197 
Q 2756 1666 2539 1819 
Q 2322 1972 1947 1972 
L 1259 1972 
L 1259 0 
L 628 0 
L 628 4666 
L 2053 4666 
Q 2853 4666 3247 4331 
Q 3641 3997 3641 3322 
Q 3641 2881 3436 2590 
Q 3231 2300 2841 2188 
z
M 1259 4147 
L 1259 2491 
L 2053 2491 
Q 2509 2491 2742 2702 
Q 2975 2913 2975 3322 
Q 2975 3731 2742 3939 
Q 2509 4147 2053 4147 
L 1259 4147 
z
" transform="scale(0.015625)"/>
       <path id="DejaVuSans-6d" d="M 3328 2828 
Q 3544 3216 3844 3400 
Q 4144 3584 4550 3584 
Q 5097 3584 5394 3201 
Q 5691 2819 5691 2113 
L 5691 0 
L 5113 0 
L 5113 2094 
Q 5113 2597 4934 2840 
Q 4756 3084 4391 3084 
Q 3944 3084 3684 2787 
Q 3425 2491 3425 1978 
L 3425 0 
L 2847 0 
L 2847 2094 
Q 2847 2600 2669 2842 
Q 2491 3084 2119 3084 
Q 1678 3084 1418 2786 
Q 1159 2488 1159 1978 
L 1159 0 
L 581 0 
L 581 3500 
L 1159 3500 
L 1159 2956 
Q 1356 3278 1631 3431 
Q 1906 3584 2284 3584 
Q 2666 3584 2933 3390 
Q 3200 3197 3328 2828 
z
" transform="scale(0.015625)"/>
       <path id="DejaVuSans-5b" d="M 550 4863 
L 1875 4863 
L 1875 4416 
L 1125 4416 
L 1125 -397 
L 1875 -397 
L 1875 -844 
L 550 -844 
L 550 4863 
z
" transform="scale(0.015625)"/>
       <path id="DejaVuSans-4d" d="M 628 4666 
L 1569 4666 
L 2759 1491 
L 3956 4666 
L 4897 4666 
L 4897 0 
L 4281 0 
L 4281 4097 
L 3078 897 
L 2444 897 
L 1241 4097 
L 1241 0 
L 628 0 
L 628 4666 
z
" transform="scale(0.015625)"/>
       <path id="DejaVuSans-6c" d="M 603 4863 
L 1178 4863 
L 1178 0 
L 603 0 
L 603 4863 
z
" transform="scale(0.015625)"/>
       <path id="DejaVuSans-73" d="M 2834 3397 
L 2834 2853 
Q 2591 2978 2328 3040 
Q 2066 3103 1784 3103 
Q 1356 3103 1142 2972 
Q 928 2841 928 2578 
Q 928 2378 1081 2264 
Q 1234 2150 1697 2047 
L 1894 2003 
Q 2506 1872 2764 1633 
Q 3022 1394 3022 966 
Q 3022 478 2636 193 
Q 2250 -91 1575 -91 
Q 1294 -91 989 -36 
Q 684 19 347 128 
L 347 722 
Q 666 556 975 473 
Q 1284 391 1588 391 
Q 1994 391 2212 530 
Q 2431 669 2431 922 
Q 2431 1156 2273 1281 
Q 2116 1406 1581 1522 
L 1381 1569 
Q 847 1681 609 1914 
Q 372 2147 372 2553 
Q 372 3047 722 3315 
Q 1072 3584 1716 3584 
Q 2034 3584 2315 3537 
Q 2597 3491 2834 3397 
z
" transform="scale(0.015625)"/>
       <path id="DejaVuSans-63" d="M 3122 3366 
L 3122 2828 
Q 2878 2963 2633 3030 
Q 2388 3097 2138 3097 
Q 1578 3097 1268 2742 
Q 959 2388 959 1747 
Q 959 1106 1268 751 
Q 1578 397 2138 397 
Q 2388 397 2633 464 
Q 2878 531 3122 666 
L 3122 134 
Q 2881 22 2623 -34 
Q 2366 -91 2075 -91 
Q 1284 -91 818 406 
Q 353 903 353 1747 
Q 353 2603 823 3093 
Q 1294 3584 2113 3584 
Q 2378 3584 2631 3529 
Q 2884 3475 3122 3366 
z
" transform="scale(0.015625)"/>
       <path id="DejaVuSans-6f" d="M 1959 3097 
Q 1497 3097 1228 2736 
Q 959 2375 959 1747 
Q 959 1119 1226 758 
Q 1494 397 1959 397 
Q 2419 397 2687 759 
Q 2956 1122 2956 1747 
Q 2956 2369 2687 2733 
Q 2419 3097 1959 3097 
z
M 1959 3584 
Q 2709 3584 3137 3096 
Q 3566 2609 3566 1747 
Q 3566 888 3137 398 
Q 2709 -91 1959 -91 
Q 1206 -91 779 398 
Q 353 888 353 1747 
Q 353 2609 779 3096 
Q 1206 3584 1959 3584 
z
" transform="scale(0.015625)"/>
       <path id="DejaVuSans-64" d="M 2906 2969 
L 2906 4863 
L 3481 4863 
L 3481 0 
L 2906 0 
L 2906 525 
Q 2725 213 2448 61 
Q 2172 -91 1784 -91 
Q 1150 -91 751 415 
Q 353 922 353 1747 
Q 353 2572 751 3078 
Q 1150 3584 1784 3584 
Q 2172 3584 2448 3432 
Q 2725 3281 2906 2969 
z
M 947 1747 
Q 947 1113 1208 752 
Q 1469 391 1925 391 
Q 2381 391 2643 752 
Q 2906 1113 2906 1747 
Q 2906 2381 2643 2742 
Q 2381 3103 1925 3103 
Q 1469 3103 1208 2742 
Q 947 2381 947 1747 
z
" transform="scale(0.015625)"/>
       <path id="DejaVuSans-5d" d="M 1947 4863 
L 1947 -844 
L 622 -844 
L 622 -397 
L 1369 -397 
L 1369 4416 
L 622 4416 
L 622 4863 
L 1947 4863 
z
" transform="scale(0.015625)"/>
      </defs>
      <use xlink:href="#DejaVuSans-52"/>
      <use xlink:href="#DejaVuSans-75" x="64.982422"/>
      <use xlink:href="#DejaVuSans-6e" x="128.361328"/>
      <use xlink:href="#DejaVuSans-74" x="191.740234"/>
      <use xlink:href="#DejaVuSans-69" x="230.949219"/>
      <use xlink:href="#DejaVuSans-6d" x="258.732422"/>
      <use xlink:href="#DejaVuSans-65" x="356.144531"/>
      <use xlink:href="#DejaVuSans-20" x="417.667969"/>
      <use xlink:href="#DejaVuSans-5b" x="449.455078"/>
      <use xlink:href="#DejaVuSans-4d" x="488.46875"/>
      <use xlink:href="#DejaVuSans-69" x="574.748047"/>
      <use xlink:href="#DejaVuSans-6c" x="602.53125"/>
      <use xlink:href="#DejaVuSans-6c" x="630.314453"/>
      <use xlink:href="#DejaVuSans-69" x="658.097656"/>
      <use xlink:href="#DejaVuSans-73" x="685.880859"/>
      <use xlink:href="#DejaVuSans-65" x="737.980469"/>
      <use xlink:href="#DejaVuSans-63" x="799.503906"/>
      <use xlink:href="#DejaVuSans-6f" x="854.484375"/>
      <use xlink:href="#DejaVuSans-6e" x="915.666016"/>
      <use xlink:href="#DejaVuSans-64" x="979.044922"/>
      <use xlink:href="#DejaVuSans-5d" x="1042.521484"/>
     </g>
    </g>
   </g>
   <g id="patch_3">
    <path d="M 50.4 602.64 
L 987.84 602.64 
" style="fill: none; stroke: #000000; stroke-width: 2; stroke-linejoin: miter; stroke-linecap: square"/>
   </g>
   <g id="text_15">
    <!-- Intel(R) Core(TM) i5-6400 @ 2700Mhz  -->
    <g transform="translate(22.2768 26.367) scale(0.16 -0.16)">
     <defs>
      <path id="DejaVuSans-Bold-49" d="M 588 4666 
L 1791 4666 
L 1791 0 
L 588 0 
L 588 4666 
z
" transform="scale(0.015625)"/>
      <path id="DejaVuSans-Bold-6e" d="M 4056 2131 
L 4056 0 
L 2931 0 
L 2931 347 
L 2931 1631 
Q 2931 2084 2911 2256 
Q 2891 2428 2841 2509 
Q 2775 2619 2662 2680 
Q 2550 2741 2406 2741 
Q 2056 2741 1856 2470 
Q 1656 2200 1656 1722 
L 1656 0 
L 538 0 
L 538 3500 
L 1656 3500 
L 1656 2988 
Q 1909 3294 2193 3439 
Q 2478 3584 2822 3584 
Q 3428 3584 3742 3212 
Q 4056 2841 4056 2131 
z
" transform="scale(0.015625)"/>
      <path id="DejaVuSans-Bold-74" d="M 1759 4494 
L 1759 3500 
L 2913 3500 
L 2913 2700 
L 1759 2700 
L 1759 1216 
Q 1759 972 1856 886 
Q 1953 800 2241 800 
L 2816 800 
L 2816 0 
L 1856 0 
Q 1194 0 917 276 
Q 641 553 641 1216 
L 641 2700 
L 84 2700 
L 84 3500 
L 641 3500 
L 641 4494 
L 1759 4494 
z
" transform="scale(0.015625)"/>
      <path id="DejaVuSans-Bold-65" d="M 4031 1759 
L 4031 1441 
L 1416 1441 
Q 1456 1047 1700 850 
Q 1944 653 2381 653 
Q 2734 653 3104 758 
Q 3475 863 3866 1075 
L 3866 213 
Q 3469 63 3072 -14 
Q 2675 -91 2278 -91 
Q 1328 -91 801 392 
Q 275 875 275 1747 
Q 275 2603 792 3093 
Q 1309 3584 2216 3584 
Q 3041 3584 3536 3087 
Q 4031 2591 4031 1759 
z
M 2881 2131 
Q 2881 2450 2695 2645 
Q 2509 2841 2209 2841 
Q 1884 2841 1681 2658 
Q 1478 2475 1428 2131 
L 2881 2131 
z
" transform="scale(0.015625)"/>
      <path id="DejaVuSans-Bold-6c" d="M 538 4863 
L 1656 4863 
L 1656 0 
L 538 0 
L 538 4863 
z
" transform="scale(0.015625)"/>
      <path id="DejaVuSans-Bold-28" d="M 2413 -844 
L 1484 -844 
Q 1006 -72 778 623 
Q 550 1319 550 2003 
Q 550 2688 779 3389 
Q 1009 4091 1484 4856 
L 2413 4856 
Q 2013 4116 1813 3408 
Q 1613 2700 1613 2009 
Q 1613 1319 1811 609 
Q 2009 -100 2413 -844 
z
" transform="scale(0.015625)"/>
      <path id="DejaVuSans-Bold-52" d="M 2297 2597 
Q 2675 2597 2839 2737 
Q 3003 2878 3003 3200 
Q 3003 3519 2839 3656 
Q 2675 3794 2297 3794 
L 1791 3794 
L 1791 2597 
L 2297 2597 
z
M 1791 1766 
L 1791 0 
L 588 0 
L 588 4666 
L 2425 4666 
Q 3347 4666 3776 4356 
Q 4206 4047 4206 3378 
Q 4206 2916 3982 2619 
Q 3759 2322 3309 2181 
Q 3556 2125 3751 1926 
Q 3947 1728 4147 1325 
L 4800 0 
L 3519 0 
L 2950 1159 
Q 2778 1509 2601 1637 
Q 2425 1766 2131 1766 
L 1791 1766 
z
" transform="scale(0.015625)"/>
      <path id="DejaVuSans-Bold-29" d="M 513 -844 
Q 913 -100 1113 609 
Q 1313 1319 1313 2009 
Q 1313 2700 1113 3408 
Q 913 4116 513 4856 
L 1441 4856 
Q 1916 4091 2145 3389 
Q 2375 2688 2375 2003 
Q 2375 1319 2147 623 
Q 1919 -72 1441 -844 
L 513 -844 
z
" transform="scale(0.015625)"/>
      <path id="DejaVuSans-Bold-20" transform="scale(0.015625)"/>
      <path id="DejaVuSans-Bold-43" d="M 4288 256 
Q 3956 84 3597 -3 
Q 3238 -91 2847 -91 
Q 1681 -91 1000 561 
Q 319 1213 319 2328 
Q 319 3447 1000 4098 
Q 1681 4750 2847 4750 
Q 3238 4750 3597 4662 
Q 3956 4575 4288 4403 
L 4288 3438 
Q 3953 3666 3628 3772 
Q 3303 3878 2944 3878 
Q 2300 3878 1931 3465 
Q 1563 3053 1563 2328 
Q 1563 1606 1931 1193 
Q 2300 781 2944 781 
Q 3303 781 3628 887 
Q 3953 994 4288 1222 
L 4288 256 
z
" transform="scale(0.015625)"/>
      <path id="DejaVuSans-Bold-6f" d="M 2203 2784 
Q 1831 2784 1636 2517 
Q 1441 2250 1441 1747 
Q 1441 1244 1636 976 
Q 1831 709 2203 709 
Q 2569 709 2762 976 
Q 2956 1244 2956 1747 
Q 2956 2250 2762 2517 
Q 2569 2784 2203 2784 
z
M 2203 3584 
Q 3106 3584 3614 3096 
Q 4122 2609 4122 1747 
Q 4122 884 3614 396 
Q 3106 -91 2203 -91 
Q 1297 -91 786 396 
Q 275 884 275 1747 
Q 275 2609 786 3096 
Q 1297 3584 2203 3584 
z
" transform="scale(0.015625)"/>
      <path id="DejaVuSans-Bold-72" d="M 3138 2547 
Q 2991 2616 2845 2648 
Q 2700 2681 2553 2681 
Q 2122 2681 1889 2404 
Q 1656 2128 1656 1613 
L 1656 0 
L 538 0 
L 538 3500 
L 1656 3500 
L 1656 2925 
Q 1872 3269 2151 3426 
Q 2431 3584 2822 3584 
Q 2878 3584 2943 3579 
Q 3009 3575 3134 3559 
L 3138 2547 
z
" transform="scale(0.015625)"/>
      <path id="DejaVuSans-Bold-54" d="M 31 4666 
L 4331 4666 
L 4331 3756 
L 2784 3756 
L 2784 0 
L 1581 0 
L 1581 3756 
L 31 3756 
L 31 4666 
z
" transform="scale(0.015625)"/>
      <path id="DejaVuSans-Bold-4d" d="M 588 4666 
L 2119 4666 
L 3181 2169 
L 4250 4666 
L 5778 4666 
L 5778 0 
L 4641 0 
L 4641 3413 
L 3566 897 
L 2803 897 
L 1728 3413 
L 1728 0 
L 588 0 
L 588 4666 
z
" transform="scale(0.015625)"/>
      <path id="DejaVuSans-Bold-69" d="M 538 3500 
L 1656 3500 
L 1656 0 
L 538 0 
L 538 3500 
z
M 538 4863 
L 1656 4863 
L 1656 3950 
L 538 3950 
L 538 4863 
z
" transform="scale(0.015625)"/>
      <path id="DejaVuSans-Bold-35" d="M 678 4666 
L 3669 4666 
L 3669 3781 
L 1638 3781 
L 1638 3059 
Q 1775 3097 1914 3117 
Q 2053 3138 2203 3138 
Q 3056 3138 3531 2711 
Q 4006 2284 4006 1522 
Q 4006 766 3489 337 
Q 2972 -91 2053 -91 
Q 1656 -91 1267 -14 
Q 878 63 494 219 
L 494 1166 
Q 875 947 1217 837 
Q 1559 728 1863 728 
Q 2300 728 2551 942 
Q 2803 1156 2803 1522 
Q 2803 1891 2551 2103 
Q 2300 2316 1863 2316 
Q 1603 2316 1309 2248 
Q 1016 2181 678 2041 
L 678 4666 
z
" transform="scale(0.015625)"/>
      <path id="DejaVuSans-Bold-2d" d="M 347 2297 
L 2309 2297 
L 2309 1388 
L 347 1388 
L 347 2297 
z
" transform="scale(0.015625)"/>
      <path id="DejaVuSans-Bold-36" d="M 2316 2303 
Q 2000 2303 1842 2098 
Q 1684 1894 1684 1484 
Q 1684 1075 1842 870 
Q 2000 666 2316 666 
Q 2634 666 2792 870 
Q 2950 1075 2950 1484 
Q 2950 1894 2792 2098 
Q 2634 2303 2316 2303 
z
M 3803 4544 
L 3803 3681 
Q 3506 3822 3243 3889 
Q 2981 3956 2731 3956 
Q 2194 3956 1894 3657 
Q 1594 3359 1544 2772 
Q 1750 2925 1990 3001 
Q 2231 3078 2516 3078 
Q 3231 3078 3670 2659 
Q 4109 2241 4109 1563 
Q 4109 813 3618 361 
Q 3128 -91 2303 -91 
Q 1394 -91 895 523 
Q 397 1138 397 2266 
Q 397 3422 980 4083 
Q 1563 4744 2578 4744 
Q 2900 4744 3203 4694 
Q 3506 4644 3803 4544 
z
" transform="scale(0.015625)"/>
      <path id="DejaVuSans-Bold-34" d="M 2356 3675 
L 1038 1722 
L 2356 1722 
L 2356 3675 
z
M 2156 4666 
L 3494 4666 
L 3494 1722 
L 4159 1722 
L 4159 850 
L 3494 850 
L 3494 0 
L 2356 0 
L 2356 850 
L 288 850 
L 288 1881 
L 2156 4666 
z
" transform="scale(0.015625)"/>
      <path id="DejaVuSans-Bold-30" d="M 2944 2338 
Q 2944 3213 2780 3570 
Q 2616 3928 2228 3928 
Q 1841 3928 1675 3570 
Q 1509 3213 1509 2338 
Q 1509 1453 1675 1090 
Q 1841 728 2228 728 
Q 2613 728 2778 1090 
Q 2944 1453 2944 2338 
z
M 4147 2328 
Q 4147 1169 3647 539 
Q 3147 -91 2228 -91 
Q 1306 -91 806 539 
Q 306 1169 306 2328 
Q 306 3491 806 4120 
Q 1306 4750 2228 4750 
Q 3147 4750 3647 4120 
Q 4147 3491 4147 2328 
z
" transform="scale(0.015625)"/>
      <path id="DejaVuSans-Bold-40" d="M 2597 1684 
Q 2597 1300 2761 1078 
Q 2925 856 3206 856 
Q 3484 856 3650 1079 
Q 3816 1303 3816 1684 
Q 3816 2063 3648 2283 
Q 3481 2503 3200 2503 
Q 2925 2503 2761 2283 
Q 2597 2063 2597 1684 
z
M 3878 744 
Q 3784 522 3576 398 
Q 3369 275 3091 275 
Q 2553 275 2217 664 
Q 1881 1053 1881 1678 
Q 1881 2303 2218 2693 
Q 2556 3084 3091 3084 
Q 3369 3084 3576 2959 
Q 3784 2834 3878 2613 
L 3878 3022 
L 4531 3022 
L 4531 856 
Q 4919 916 5141 1230 
Q 5363 1544 5363 2034 
Q 5363 2347 5272 2620 
Q 5181 2894 4997 3122 
Q 4700 3503 4254 3709 
Q 3809 3916 3291 3916 
Q 2928 3916 2597 3820 
Q 2266 3725 1984 3541 
Q 1522 3234 1264 2748 
Q 1006 2263 1006 1697 
Q 1006 1231 1173 823 
Q 1341 416 1656 103 
Q 1969 -203 2373 -364 
Q 2778 -525 3238 -525 
Q 3631 -525 4025 -378 
Q 4419 -231 4697 19 
L 5031 -488 
Q 4641 -791 4180 -952 
Q 3719 -1113 3244 -1113 
Q 2666 -1113 2153 -908 
Q 1641 -703 1241 -313 
Q 841 78 631 592 
Q 422 1106 422 1697 
Q 422 2266 634 2781 
Q 847 3297 1241 3688 
Q 1634 4075 2157 4287 
Q 2681 4500 3244 4500 
Q 3944 4500 4516 4233 
Q 5088 3966 5472 3463 
Q 5706 3156 5826 2798 
Q 5947 2441 5947 2047 
Q 5947 1200 5437 731 
Q 4928 263 4000 263 
L 3878 263 
L 3878 744 
z
" transform="scale(0.015625)"/>
      <path id="DejaVuSans-Bold-32" d="M 1844 884 
L 3897 884 
L 3897 0 
L 506 0 
L 506 884 
L 2209 2388 
Q 2438 2594 2547 2791 
Q 2656 2988 2656 3200 
Q 2656 3528 2436 3728 
Q 2216 3928 1850 3928 
Q 1569 3928 1234 3808 
Q 900 3688 519 3450 
L 519 4475 
Q 925 4609 1322 4679 
Q 1719 4750 2100 4750 
Q 2938 4750 3402 4381 
Q 3866 4013 3866 3353 
Q 3866 2972 3669 2642 
Q 3472 2313 2841 1759 
L 1844 884 
z
" transform="scale(0.015625)"/>
      <path id="DejaVuSans-Bold-37" d="M 428 4666 
L 3944 4666 
L 3944 3988 
L 2125 0 
L 953 0 
L 2675 3781 
L 428 3781 
L 428 4666 
z
" transform="scale(0.015625)"/>
      <path id="DejaVuSans-Bold-68" d="M 4056 2131 
L 4056 0 
L 2931 0 
L 2931 347 
L 2931 1625 
Q 2931 2084 2911 2256 
Q 2891 2428 2841 2509 
Q 2775 2619 2662 2680 
Q 2550 2741 2406 2741 
Q 2056 2741 1856 2470 
Q 1656 2200 1656 1722 
L 1656 0 
L 538 0 
L 538 4863 
L 1656 4863 
L 1656 2988 
Q 1909 3294 2193 3439 
Q 2478 3584 2822 3584 
Q 3428 3584 3742 3212 
Q 4056 2841 4056 2131 
z
" transform="scale(0.015625)"/>
      <path id="DejaVuSans-Bold-7a" d="M 366 3500 
L 3419 3500 
L 3419 2719 
L 1575 800 
L 3419 800 
L 3419 0 
L 288 0 
L 288 781 
L 2131 2700 
L 366 2700 
L 366 3500 
z
" transform="scale(0.015625)"/>
     </defs>
     <use xlink:href="#DejaVuSans-Bold-49"/>
     <use xlink:href="#DejaVuSans-Bold-6e" x="37.207031"/>
     <use xlink:href="#DejaVuSans-Bold-74" x="108.398438"/>
     <use xlink:href="#DejaVuSans-Bold-65" x="156.201172"/>
     <use xlink:href="#DejaVuSans-Bold-6c" x="224.023438"/>
     <use xlink:href="#DejaVuSans-Bold-28" x="258.300781"/>
     <use xlink:href="#DejaVuSans-Bold-52" x="304.003906"/>
     <use xlink:href="#DejaVuSans-Bold-29" x="381.005859"/>
     <use xlink:href="#DejaVuSans-Bold-20" x="426.708984"/>
     <use xlink:href="#DejaVuSans-Bold-43" x="461.523438"/>
     <use xlink:href="#DejaVuSans-Bold-6f" x="534.912109"/>
     <use xlink:href="#DejaVuSans-Bold-72" x="603.613281"/>
     <use xlink:href="#DejaVuSans-Bold-65" x="652.929688"/>
     <use xlink:href="#DejaVuSans-Bold-28" x="720.751953"/>
     <use xlink:href="#DejaVuSans-Bold-54" x="766.455078"/>
     <use xlink:href="#DejaVuSans-Bold-4d" x="834.667969"/>
     <use xlink:href="#DejaVuSans-Bold-29" x="934.179688"/>
     <use xlink:href="#DejaVuSans-Bold-20" x="979.882812"/>
     <use xlink:href="#DejaVuSans-Bold-69" x="1014.697266"/>
     <use xlink:href="#DejaVuSans-Bold-35" x="1048.974609"/>
     <use xlink:href="#DejaVuSans-Bold-2d" x="1118.554688"/>
     <use xlink:href="#DejaVuSans-Bold-36" x="1160.058594"/>
     <use xlink:href="#DejaVuSans-Bold-34" x="1229.638672"/>
     <use xlink:href="#DejaVuSans-Bold-30" x="1299.21875"/>
     <use xlink:href="#DejaVuSans-Bold-30" x="1368.798828"/>
     <use xlink:href="#DejaVuSans-Bold-20" x="1438.378906"/>
     <use xlink:href="#DejaVuSans-Bold-40" x="1473.193359"/>
     <use xlink:href="#DejaVuSans-Bold-20" x="1573.193359"/>
     <use xlink:href="#DejaVuSans-Bold-32" x="1608.007812"/>
     <use xlink:href="#DejaVuSans-Bold-37" x="1677.587891"/>
     <use xlink:href="#DejaVuSans-Bold-30" x="1747.167969"/>
     <use xlink:href="#DejaVuSans-Bold-30" x="1816.748047"/>
     <use xlink:href="#DejaVuSans-Bold-4d" x="1886.328125"/>
     <use xlink:href="#DejaVuSans-Bold-68" x="1985.839844"/>
     <use xlink:href="#DejaVuSans-Bold-7a" x="2057.03125"/>
     <use xlink:href="#DejaVuSans-Bold-20" x="2115.234375"/>
    </g>
    <!-- L1:64KB L2:256KB L3:6MB  -->
    <g transform="translate(22.2768 44.2835) scale(0.16 -0.16)">
     <defs>
      <path id="DejaVuSans-Bold-4c" d="M 588 4666 
L 1791 4666 
L 1791 909 
L 3903 909 
L 3903 0 
L 588 0 
L 588 4666 
z
" transform="scale(0.015625)"/>
      <path id="DejaVuSans-Bold-31" d="M 750 831 
L 1813 831 
L 1813 3847 
L 722 3622 
L 722 4441 
L 1806 4666 
L 2950 4666 
L 2950 831 
L 4013 831 
L 4013 0 
L 750 0 
L 750 831 
z
" transform="scale(0.015625)"/>
      <path id="DejaVuSans-Bold-3a" d="M 716 3500 
L 1844 3500 
L 1844 2291 
L 716 2291 
L 716 3500 
z
M 716 1209 
L 1844 1209 
L 1844 0 
L 716 0 
L 716 1209 
z
" transform="scale(0.015625)"/>
      <path id="DejaVuSans-Bold-4b" d="M 588 4666 
L 1791 4666 
L 1791 2963 
L 3525 4666 
L 4922 4666 
L 2675 2456 
L 5153 0 
L 3647 0 
L 1791 1838 
L 1791 0 
L 588 0 
L 588 4666 
z
" transform="scale(0.015625)"/>
      <path id="DejaVuSans-Bold-42" d="M 2456 2859 
Q 2741 2859 2887 2984 
Q 3034 3109 3034 3353 
Q 3034 3594 2887 3720 
Q 2741 3847 2456 3847 
L 1791 3847 
L 1791 2859 
L 2456 2859 
z
M 2497 819 
Q 2859 819 3042 972 
Q 3225 1125 3225 1434 
Q 3225 1738 3044 1889 
Q 2863 2041 2497 2041 
L 1791 2041 
L 1791 819 
L 2497 819 
z
M 3616 2497 
Q 4003 2384 4215 2081 
Q 4428 1778 4428 1338 
Q 4428 663 3972 331 
Q 3516 0 2584 0 
L 588 0 
L 588 4666 
L 2394 4666 
Q 3366 4666 3802 4372 
Q 4238 4078 4238 3431 
Q 4238 3091 4078 2852 
Q 3919 2613 3616 2497 
z
" transform="scale(0.015625)"/>
      <path id="DejaVuSans-Bold-33" d="M 2981 2516 
Q 3453 2394 3698 2092 
Q 3944 1791 3944 1325 
Q 3944 631 3412 270 
Q 2881 -91 1863 -91 
Q 1503 -91 1142 -33 
Q 781 25 428 141 
L 428 1069 
Q 766 900 1098 814 
Q 1431 728 1753 728 
Q 2231 728 2486 893 
Q 2741 1059 2741 1369 
Q 2741 1688 2480 1852 
Q 2219 2016 1709 2016 
L 1228 2016 
L 1228 2791 
L 1734 2791 
Q 2188 2791 2409 2933 
Q 2631 3075 2631 3366 
Q 2631 3634 2415 3781 
Q 2200 3928 1806 3928 
Q 1516 3928 1219 3862 
Q 922 3797 628 3669 
L 628 4550 
Q 984 4650 1334 4700 
Q 1684 4750 2022 4750 
Q 2931 4750 3382 4451 
Q 3834 4153 3834 3553 
Q 3834 3144 3618 2883 
Q 3403 2622 2981 2516 
z
" transform="scale(0.015625)"/>
     </defs>
     <use xlink:href="#DejaVuSans-Bold-4c"/>
     <use xlink:href="#DejaVuSans-Bold-31" x="63.720703"/>
     <use xlink:href="#DejaVuSans-Bold-3a" x="133.300781"/>
     <use xlink:href="#DejaVuSans-Bold-36" x="173.291016"/>
     <use xlink:href="#DejaVuSans-Bold-34" x="242.871094"/>
     <use xlink:href="#DejaVuSans-Bold-4b" x="312.451172"/>
     <use xlink:href="#DejaVuSans-Bold-42" x="389.941406"/>
     <use xlink:href="#DejaVuSans-Bold-20" x="466.162109"/>
     <use xlink:href="#DejaVuSans-Bold-4c" x="500.976562"/>
     <use xlink:href="#DejaVuSans-Bold-32" x="564.697266"/>
     <use xlink:href="#DejaVuSans-Bold-3a" x="634.277344"/>
     <use xlink:href="#DejaVuSans-Bold-32" x="674.267578"/>
     <use xlink:href="#DejaVuSans-Bold-35" x="743.847656"/>
     <use xlink:href="#DejaVuSans-Bold-36" x="813.427734"/>
     <use xlink:href="#DejaVuSans-Bold-4b" x="883.007812"/>
     <use xlink:href="#DejaVuSans-Bold-42" x="960.498047"/>
     <use xlink:href="#DejaVuSans-Bold-20" x="1036.71875"/>
     <use xlink:href="#DejaVuSans-Bold-4c" x="1071.533203"/>
     <use xlink:href="#DejaVuSans-Bold-33" x="1135.253906"/>
     <use xlink:href="#DejaVuSans-Bold-3a" x="1204.833984"/>
     <use xlink:href="#DejaVuSans-Bold-36" x="1244.824219"/>
     <use xlink:href="#DejaVuSans-Bold-4d" x="1314.404297"/>
     <use xlink:href="#DejaVuSans-Bold-42" x="1413.916016"/>
     <use xlink:href="#DejaVuSans-Bold-20" x="1490.136719"/>
    </g>
    <!-- Compiler: gcc 10.2.1 -->
    <g transform="translate(22.2768 62.2) scale(0.16 -0.16)">
     <defs>
      <path id="DejaVuSans-Bold-6d" d="M 3781 2919 
Q 3994 3244 4286 3414 
Q 4578 3584 4928 3584 
Q 5531 3584 5847 3212 
Q 6163 2841 6163 2131 
L 6163 0 
L 5038 0 
L 5038 1825 
Q 5041 1866 5042 1909 
Q 5044 1953 5044 2034 
Q 5044 2406 4934 2573 
Q 4825 2741 4581 2741 
Q 4263 2741 4089 2478 
Q 3916 2216 3909 1719 
L 3909 0 
L 2784 0 
L 2784 1825 
Q 2784 2406 2684 2573 
Q 2584 2741 2328 2741 
Q 2006 2741 1831 2477 
Q 1656 2213 1656 1722 
L 1656 0 
L 531 0 
L 531 3500 
L 1656 3500 
L 1656 2988 
Q 1863 3284 2130 3434 
Q 2397 3584 2719 3584 
Q 3081 3584 3359 3409 
Q 3638 3234 3781 2919 
z
" transform="scale(0.015625)"/>
      <path id="DejaVuSans-Bold-70" d="M 1656 506 
L 1656 -1331 
L 538 -1331 
L 538 3500 
L 1656 3500 
L 1656 2988 
Q 1888 3294 2169 3439 
Q 2450 3584 2816 3584 
Q 3463 3584 3878 3070 
Q 4294 2556 4294 1747 
Q 4294 938 3878 423 
Q 3463 -91 2816 -91 
Q 2450 -91 2169 54 
Q 1888 200 1656 506 
z
M 2400 2772 
Q 2041 2772 1848 2508 
Q 1656 2244 1656 1747 
Q 1656 1250 1848 986 
Q 2041 722 2400 722 
Q 2759 722 2948 984 
Q 3138 1247 3138 1747 
Q 3138 2247 2948 2509 
Q 2759 2772 2400 2772 
z
" transform="scale(0.015625)"/>
      <path id="DejaVuSans-Bold-67" d="M 2919 594 
Q 2688 288 2409 144 
Q 2131 0 1766 0 
Q 1125 0 706 504 
Q 288 1009 288 1791 
Q 288 2575 706 3076 
Q 1125 3578 1766 3578 
Q 2131 3578 2409 3434 
Q 2688 3291 2919 2981 
L 2919 3500 
L 4044 3500 
L 4044 353 
Q 4044 -491 3511 -936 
Q 2978 -1381 1966 -1381 
Q 1638 -1381 1331 -1331 
Q 1025 -1281 716 -1178 
L 716 -306 
Q 1009 -475 1290 -558 
Q 1572 -641 1856 -641 
Q 2406 -641 2662 -400 
Q 2919 -159 2919 353 
L 2919 594 
z
M 2181 2772 
Q 1834 2772 1640 2515 
Q 1447 2259 1447 1791 
Q 1447 1309 1634 1061 
Q 1822 813 2181 813 
Q 2531 813 2725 1069 
Q 2919 1325 2919 1791 
Q 2919 2259 2725 2515 
Q 2531 2772 2181 2772 
z
" transform="scale(0.015625)"/>
      <path id="DejaVuSans-Bold-63" d="M 3366 3391 
L 3366 2478 
Q 3138 2634 2908 2709 
Q 2678 2784 2431 2784 
Q 1963 2784 1702 2511 
Q 1441 2238 1441 1747 
Q 1441 1256 1702 982 
Q 1963 709 2431 709 
Q 2694 709 2930 787 
Q 3166 866 3366 1019 
L 3366 103 
Q 3103 6 2833 -42 
Q 2563 -91 2291 -91 
Q 1344 -91 809 395 
Q 275 881 275 1747 
Q 275 2613 809 3098 
Q 1344 3584 2291 3584 
Q 2566 3584 2833 3536 
Q 3100 3488 3366 3391 
z
" transform="scale(0.015625)"/>
      <path id="DejaVuSans-Bold-2e" d="M 653 1209 
L 1778 1209 
L 1778 0 
L 653 0 
L 653 1209 
z
" transform="scale(0.015625)"/>
     </defs>
     <use xlink:href="#DejaVuSans-Bold-43"/>
     <use xlink:href="#DejaVuSans-Bold-6f" x="73.388672"/>
     <use xlink:href="#DejaVuSans-Bold-6d" x="142.089844"/>
     <use xlink:href="#DejaVuSans-Bold-70" x="246.289062"/>
     <use xlink:href="#DejaVuSans-Bold-69" x="317.871094"/>
     <use xlink:href="#DejaVuSans-Bold-6c" x="352.148438"/>
     <use xlink:href="#DejaVuSans-Bold-65" x="386.425781"/>
     <use xlink:href="#DejaVuSans-Bold-72" x="454.248047"/>
     <use xlink:href="#DejaVuSans-Bold-3a" x="503.564453"/>
     <use xlink:href="#DejaVuSans-Bold-20" x="543.554688"/>
     <use xlink:href="#DejaVuSans-Bold-67" x="578.369141"/>
     <use xlink:href="#DejaVuSans-Bold-63" x="649.951172"/>
     <use xlink:href="#DejaVuSans-Bold-63" x="709.228516"/>
     <use xlink:href="#DejaVuSans-Bold-20" x="768.505859"/>
     <use xlink:href="#DejaVuSans-Bold-31" x="803.320312"/>
     <use xlink:href="#DejaVuSans-Bold-30" x="872.900391"/>
     <use xlink:href="#DejaVuSans-Bold-2e" x="942.480469"/>
     <use xlink:href="#DejaVuSans-Bold-32" x="980.46875"/>
     <use xlink:href="#DejaVuSans-Bold-2e" x="1050.048828"/>
     <use xlink:href="#DejaVuSans-Bold-31" x="1088.037109"/>
    </g>
   </g>
   <g id="legend_1">
    <g id="patch_4">
     <path d="M 58.8 231.765 
L 195.12 231.765 
Q 197.52 231.765 197.52 229.365 
L 197.52 105.6 
Q 197.52 103.2 195.12 103.2 
L 58.8 103.2 
Q 56.4 103.2 56.4 105.6 
L 56.4 229.365 
Q 56.4 231.765 58.8 231.765 
z
" style="fill: #ffffff; opacity: 0.8; stroke: #cccccc; stroke-linejoin: miter"/>
    </g>
    <g id="line2d_21">
     <path d="M 61.2 112.918125 
L 73.2 112.918125 
L 85.2 112.918125 
" style="fill: none; stroke: #000000; stroke-width: 1.5; stroke-linecap: square"/>
     <defs>
      <path id="m08cbb00f44" d="M 0 5 
C 1.326016 5 2.597899 4.473168 3.535534 3.535534 
C 4.473168 2.597899 5 1.326016 5 0 
C 5 -1.326016 4.473168 -2.597899 3.535534 -3.535534 
C 2.597899 -4.473168 1.326016 -5 0 -5 
C -1.326016 -5 -2.597899 -4.473168 -3.535534 -3.535534 
C -4.473168 -2.597899 -5 -1.326016 -5 0 
C -5 1.326016 -4.473168 2.597899 -3.535534 3.535534 
C -2.597899 4.473168 -1.326016 5 0 5 
z
" style="stroke: #ffffff"/>
     </defs>
     <g>
      <use xlink:href="#m08cbb00f44" x="73.2" y="112.918125" style="stroke: #ffffff"/>
     </g>
    </g>
    <g id="text_16">
     <!-- Base -->
     <g transform="translate(94.8 117.118125) scale(0.12 -0.12)">
      <defs>
       <path id="DejaVuSans-42" d="M 1259 2228 
L 1259 519 
L 2272 519 
Q 2781 519 3026 730 
Q 3272 941 3272 1375 
Q 3272 1813 3026 2020 
Q 2781 2228 2272 2228 
L 1259 2228 
z
M 1259 4147 
L 1259 2741 
L 2194 2741 
Q 2656 2741 2882 2914 
Q 3109 3088 3109 3444 
Q 3109 3797 2882 3972 
Q 2656 4147 2194 4147 
L 1259 4147 
z
M 628 4666 
L 2241 4666 
Q 2963 4666 3353 4366 
Q 3744 4066 3744 3513 
Q 3744 3084 3544 2831 
Q 3344 2578 2956 2516 
Q 3422 2416 3680 2098 
Q 3938 1781 3938 1306 
Q 3938 681 3513 340 
Q 3088 0 2303 0 
L 628 0 
L 628 4666 
z
" transform="scale(0.015625)"/>
       <path id="DejaVuSans-61" d="M 2194 1759 
Q 1497 1759 1228 1600 
Q 959 1441 959 1056 
Q 959 750 1161 570 
Q 1363 391 1709 391 
Q 2188 391 2477 730 
Q 2766 1069 2766 1631 
L 2766 1759 
L 2194 1759 
z
M 3341 1997 
L 3341 0 
L 2766 0 
L 2766 531 
Q 2569 213 2275 61 
Q 1981 -91 1556 -91 
Q 1019 -91 701 211 
Q 384 513 384 1019 
Q 384 1609 779 1909 
Q 1175 2209 1959 2209 
L 2766 2209 
L 2766 2266 
Q 2766 2663 2505 2880 
Q 2244 3097 1772 3097 
Q 1472 3097 1187 3025 
Q 903 2953 641 2809 
L 641 3341 
Q 956 3463 1253 3523 
Q 1550 3584 1831 3584 
Q 2591 3584 2966 3190 
Q 3341 2797 3341 1997 
z
" transform="scale(0.015625)"/>
      </defs>
      <use xlink:href="#DejaVuSans-42"/>
      <use xlink:href="#DejaVuSans-61" x="68.603516"/>
      <use xlink:href="#DejaVuSans-73" x="129.882812"/>
      <use xlink:href="#DejaVuSans-65" x="181.982422"/>
     </g>
    </g>
    <g id="line2d_22">
     <path d="M 61.2 130.531875 
L 73.2 130.531875 
L 85.2 130.531875 
" style="fill: none; stroke: #a1a1a1; stroke-width: 1.5; stroke-linecap: square"/>
     <defs>
      <path id="m3dd05e51aa" d="M 0 5 
C 1.326016 5 2.597899 4.473168 3.535534 3.535534 
C 4.473168 2.597899 5 1.326016 5 0 
C 5 -1.326016 4.473168 -2.597899 3.535534 -3.535534 
C 2.597899 -4.473168 1.326016 -5 0 -5 
C -1.326016 -5 -2.597899 -4.473168 -3.535534 -3.535534 
C -4.473168 -2.597899 -5 -1.326016 -5 0 
C -5 1.326016 -4.473168 2.597899 -3.535534 3.535534 
C -2.597899 4.473168 -1.326016 5 0 5 
z
" style="stroke: #ffffff"/>
     </defs>
     <g>
      <use xlink:href="#m3dd05e51aa" x="73.2" y="130.531875" style="fill: #a1a1a1; stroke: #ffffff"/>
     </g>
    </g>
    <g id="text_17">
     <!-- Base_optimized -->
     <g transform="translate(94.8 134.731875) scale(0.12 -0.12)">
      <defs>
       <path id="DejaVuSans-5f" d="M 3263 -1063 
L 3263 -1509 
L -63 -1509 
L -63 -1063 
L 3263 -1063 
z
" transform="scale(0.015625)"/>
      </defs>
      <use xlink:href="#DejaVuSans-42"/>
      <use xlink:href="#DejaVuSans-61" x="68.603516"/>
      <use xlink:href="#DejaVuSans-73" x="129.882812"/>
      <use xlink:href="#DejaVuSans-65" x="181.982422"/>
      <use xlink:href="#DejaVuSans-5f" x="243.505859"/>
      <use xlink:href="#DejaVuSans-6f" x="293.505859"/>
      <use xlink:href="#DejaVuSans-70" x="354.6875"/>
      <use xlink:href="#DejaVuSans-74" x="418.164062"/>
      <use xlink:href="#DejaVuSans-69" x="457.373047"/>
      <use xlink:href="#DejaVuSans-6d" x="485.15625"/>
      <use xlink:href="#DejaVuSans-69" x="582.568359"/>
      <use xlink:href="#DejaVuSans-7a" x="610.351562"/>
      <use xlink:href="#DejaVuSans-65" x="662.841797"/>
      <use xlink:href="#DejaVuSans-64" x="724.365234"/>
     </g>
    </g>
    <g id="line2d_23">
     <path d="M 61.2 148.479375 
L 73.2 148.479375 
L 85.2 148.479375 
" style="fill: none; stroke: #c3c3c3; stroke-width: 1.5; stroke-linecap: square"/>
     <defs>
      <path id="ma036a2e977" d="M 0 5 
C 1.326016 5 2.597899 4.473168 3.535534 3.535534 
C 4.473168 2.597899 5 1.326016 5 0 
C 5 -1.326016 4.473168 -2.597899 3.535534 -3.535534 
C 2.597899 -4.473168 1.326016 -5 0 -5 
C -1.326016 -5 -2.597899 -4.473168 -3.535534 -3.535534 
C -4.473168 -2.597899 -5 -1.326016 -5 0 
C -5 1.326016 -4.473168 2.597899 -3.535534 3.535534 
C -2.597899 4.473168 -1.326016 5 0 5 
z
" style="stroke: #ffffff"/>
     </defs>
     <g>
      <use xlink:href="#ma036a2e977" x="73.2" y="148.479375" style="fill: #c3c3c3; stroke: #ffffff"/>
     </g>
    </g>
    <g id="text_18">
     <!-- Base_vectorized -->
     <g transform="translate(94.8 152.679375) scale(0.12 -0.12)">
      <defs>
       <path id="DejaVuSans-76" d="M 191 3500 
L 800 3500 
L 1894 563 
L 2988 3500 
L 3597 3500 
L 2284 0 
L 1503 0 
L 191 3500 
z
" transform="scale(0.015625)"/>
       <path id="DejaVuSans-72" d="M 2631 2963 
Q 2534 3019 2420 3045 
Q 2306 3072 2169 3072 
Q 1681 3072 1420 2755 
Q 1159 2438 1159 1844 
L 1159 0 
L 581 0 
L 581 3500 
L 1159 3500 
L 1159 2956 
Q 1341 3275 1631 3429 
Q 1922 3584 2338 3584 
Q 2397 3584 2469 3576 
Q 2541 3569 2628 3553 
L 2631 2963 
z
" transform="scale(0.015625)"/>
      </defs>
      <use xlink:href="#DejaVuSans-42"/>
      <use xlink:href="#DejaVuSans-61" x="68.603516"/>
      <use xlink:href="#DejaVuSans-73" x="129.882812"/>
      <use xlink:href="#DejaVuSans-65" x="181.982422"/>
      <use xlink:href="#DejaVuSans-5f" x="243.505859"/>
      <use xlink:href="#DejaVuSans-76" x="293.505859"/>
      <use xlink:href="#DejaVuSans-65" x="352.685547"/>
      <use xlink:href="#DejaVuSans-63" x="414.208984"/>
      <use xlink:href="#DejaVuSans-74" x="469.189453"/>
      <use xlink:href="#DejaVuSans-6f" x="508.398438"/>
      <use xlink:href="#DejaVuSans-72" x="569.580078"/>
      <use xlink:href="#DejaVuSans-69" x="610.693359"/>
      <use xlink:href="#DejaVuSans-7a" x="638.476562"/>
      <use xlink:href="#DejaVuSans-65" x="690.966797"/>
      <use xlink:href="#DejaVuSans-64" x="752.490234"/>
     </g>
    </g>
    <g id="line2d_24">
     <path d="M 61.2 166.426875 
L 73.2 166.426875 
L 85.2 166.426875 
" style="fill: none; stroke: #008000; stroke-width: 1.5; stroke-linecap: square"/>
     <defs>
      <path id="m0db1f8f23b" d="M 0 5 
C 1.326016 5 2.597899 4.473168 3.535534 3.535534 
C 4.473168 2.597899 5 1.326016 5 0 
C 5 -1.326016 4.473168 -2.597899 3.535534 -3.535534 
C 2.597899 -4.473168 1.326016 -5 0 -5 
C -1.326016 -5 -2.597899 -4.473168 -3.535534 -3.535534 
C -4.473168 -2.597899 -5 -1.326016 -5 0 
C -5 1.326016 -4.473168 2.597899 -3.535534 3.535534 
C -2.597899 4.473168 -1.326016 5 0 5 
z
" style="stroke: #ffffff"/>
     </defs>
     <g>
      <use xlink:href="#m0db1f8f23b" x="73.2" y="166.426875" style="fill: #008000; stroke: #ffffff"/>
     </g>
    </g>
    <g id="text_19">
     <!-- Lu -->
     <g transform="translate(94.8 170.626875) scale(0.12 -0.12)">
      <defs>
       <path id="DejaVuSans-4c" d="M 628 4666 
L 1259 4666 
L 1259 531 
L 3531 531 
L 3531 0 
L 628 0 
L 628 4666 
z
" transform="scale(0.015625)"/>
      </defs>
      <use xlink:href="#DejaVuSans-4c"/>
      <use xlink:href="#DejaVuSans-75" x="53.962891"/>
     </g>
    </g>
    <g id="line2d_25">
     <path d="M 61.2 184.040625 
L 73.2 184.040625 
L 85.2 184.040625 
" style="fill: none; stroke: #ffff00; stroke-width: 1.5; stroke-linecap: square"/>
     <defs>
      <path id="m8e570dff68" d="M 0 5 
C 1.326016 5 2.597899 4.473168 3.535534 3.535534 
C 4.473168 2.597899 5 1.326016 5 0 
C 5 -1.326016 4.473168 -2.597899 3.535534 -3.535534 
C 2.597899 -4.473168 1.326016 -5 0 -5 
C -1.326016 -5 -2.597899 -4.473168 -3.535534 -3.535534 
C -4.473168 -2.597899 -5 -1.326016 -5 0 
C -5 1.326016 -4.473168 2.597899 -3.535534 3.535534 
C -2.597899 4.473168 -1.326016 5 0 5 
z
" style="stroke: #ffffff"/>
     </defs>
     <g>
      <use xlink:href="#m8e570dff68" x="73.2" y="184.040625" style="fill: #ffff00; stroke: #ffffff"/>
     </g>
    </g>
    <g id="text_20">
     <!-- Lu_optimized -->
     <g transform="translate(94.8 188.240625) scale(0.12 -0.12)">
      <use xlink:href="#DejaVuSans-4c"/>
      <use xlink:href="#DejaVuSans-75" x="53.962891"/>
      <use xlink:href="#DejaVuSans-5f" x="117.341797"/>
      <use xlink:href="#DejaVuSans-6f" x="167.341797"/>
      <use xlink:href="#DejaVuSans-70" x="228.523438"/>
      <use xlink:href="#DejaVuSans-74" x="292"/>
      <use xlink:href="#DejaVuSans-69" x="331.208984"/>
      <use xlink:href="#DejaVuSans-6d" x="358.992188"/>
      <use xlink:href="#DejaVuSans-69" x="456.404297"/>
      <use xlink:href="#DejaVuSans-7a" x="484.1875"/>
      <use xlink:href="#DejaVuSans-65" x="536.677734"/>
      <use xlink:href="#DejaVuSans-64" x="598.201172"/>
     </g>
    </g>
    <g id="line2d_26">
     <path d="M 61.2 201.988125 
L 73.2 201.988125 
L 85.2 201.988125 
" style="fill: none; stroke: #ffa500; stroke-width: 1.5; stroke-linecap: square"/>
     <defs>
      <path id="m1e2f0a45b5" d="M 0 5 
C 1.326016 5 2.597899 4.473168 3.535534 3.535534 
C 4.473168 2.597899 5 1.326016 5 0 
C 5 -1.326016 4.473168 -2.597899 3.535534 -3.535534 
C 2.597899 -4.473168 1.326016 -5 0 -5 
C -1.326016 -5 -2.597899 -4.473168 -3.535534 -3.535534 
C -4.473168 -2.597899 -5 -1.326016 -5 0 
C -5 1.326016 -4.473168 2.597899 -3.535534 3.535534 
C -2.597899 4.473168 -1.326016 5 0 5 
z
" style="stroke: #ffffff"/>
     </defs>
     <g>
      <use xlink:href="#m1e2f0a45b5" x="73.2" y="201.988125" style="fill: #ffa500; stroke: #ffffff"/>
     </g>
    </g>
    <g id="text_21">
     <!-- Lu_blocked -->
     <g transform="translate(94.8 206.188125) scale(0.12 -0.12)">
      <defs>
       <path id="DejaVuSans-62" d="M 3116 1747 
Q 3116 2381 2855 2742 
Q 2594 3103 2138 3103 
Q 1681 3103 1420 2742 
Q 1159 2381 1159 1747 
Q 1159 1113 1420 752 
Q 1681 391 2138 391 
Q 2594 391 2855 752 
Q 3116 1113 3116 1747 
z
M 1159 2969 
Q 1341 3281 1617 3432 
Q 1894 3584 2278 3584 
Q 2916 3584 3314 3078 
Q 3713 2572 3713 1747 
Q 3713 922 3314 415 
Q 2916 -91 2278 -91 
Q 1894 -91 1617 61 
Q 1341 213 1159 525 
L 1159 0 
L 581 0 
L 581 4863 
L 1159 4863 
L 1159 2969 
z
" transform="scale(0.015625)"/>
       <path id="DejaVuSans-6b" d="M 581 4863 
L 1159 4863 
L 1159 1991 
L 2875 3500 
L 3609 3500 
L 1753 1863 
L 3688 0 
L 2938 0 
L 1159 1709 
L 1159 0 
L 581 0 
L 581 4863 
z
" transform="scale(0.015625)"/>
      </defs>
      <use xlink:href="#DejaVuSans-4c"/>
      <use xlink:href="#DejaVuSans-75" x="53.962891"/>
      <use xlink:href="#DejaVuSans-5f" x="117.341797"/>
      <use xlink:href="#DejaVuSans-62" x="167.341797"/>
      <use xlink:href="#DejaVuSans-6c" x="230.818359"/>
      <use xlink:href="#DejaVuSans-6f" x="258.601562"/>
      <use xlink:href="#DejaVuSans-63" x="319.783203"/>
      <use xlink:href="#DejaVuSans-6b" x="374.763672"/>
      <use xlink:href="#DejaVuSans-65" x="429.048828"/>
      <use xlink:href="#DejaVuSans-64" x="490.572266"/>
     </g>
    </g>
    <g id="line2d_27">
     <path d="M 61.2 219.935625 
L 73.2 219.935625 
L 85.2 219.935625 
" style="fill: none; stroke: #ff0000; stroke-width: 3; stroke-linecap: square"/>
     <defs>
      <path id="mf18083443f" d="M 0 5 
C 1.326016 5 2.597899 4.473168 3.535534 3.535534 
C 4.473168 2.597899 5 1.326016 5 0 
C 5 -1.326016 4.473168 -2.597899 3.535534 -3.535534 
C 2.597899 -4.473168 1.326016 -5 0 -5 
C -1.326016 -5 -2.597899 -4.473168 -3.535534 -3.535534 
C -4.473168 -2.597899 -5 -1.326016 -5 0 
C -5 1.326016 -4.473168 2.597899 -3.535534 3.535534 
C -2.597899 4.473168 -1.326016 5 0 5 
z
" style="stroke: #ffffff"/>
     </defs>
     <g>
      <use xlink:href="#mf18083443f" x="73.2" y="219.935625" style="fill: #ff0000; stroke: #ffffff"/>
     </g>
    </g>
    <g id="text_22">
     <!-- Lu_vectorized -->
     <g transform="translate(94.8 224.135625) scale(0.12 -0.12)">
      <use xlink:href="#DejaVuSans-4c"/>
      <use xlink:href="#DejaVuSans-75" x="53.962891"/>
      <use xlink:href="#DejaVuSans-5f" x="117.341797"/>
      <use xlink:href="#DejaVuSans-76" x="167.341797"/>
      <use xlink:href="#DejaVuSans-65" x="226.521484"/>
      <use xlink:href="#DejaVuSans-63" x="288.044922"/>
      <use xlink:href="#DejaVuSans-74" x="343.025391"/>
      <use xlink:href="#DejaVuSans-6f" x="382.234375"/>
      <use xlink:href="#DejaVuSans-72" x="443.416016"/>
      <use xlink:href="#DejaVuSans-69" x="484.529297"/>
      <use xlink:href="#DejaVuSans-7a" x="512.3125"/>
      <use xlink:href="#DejaVuSans-65" x="564.802734"/>
      <use xlink:href="#DejaVuSans-64" x="626.326172"/>
     </g>
    </g>
   </g>
   <g id="line2d_28">
    <path d="M 77.707144 602.248496 
L 370.98734 599.224998 
L 664.267536 574.823453 
L 957.547731 182.449632 
" style="fill: none; stroke: #000000; stroke-width: 1.5; stroke-linecap: square"/>
    <g>
     <use xlink:href="#m08cbb00f44" x="77.707144" y="602.248496" style="stroke: #ffffff"/>
     <use xlink:href="#m08cbb00f44" x="370.98734" y="599.224998" style="stroke: #ffffff"/>
     <use xlink:href="#m08cbb00f44" x="664.267536" y="574.823453" style="stroke: #ffffff"/>
     <use xlink:href="#m08cbb00f44" x="957.547731" y="182.449632" style="stroke: #ffffff"/>
    </g>
   </g>
   <g id="line2d_29">
    <path d="M 77.707144 602.267301 
L 370.98734 599.434961 
L 664.267536 576.33503 
L 957.547731 211.32336 
" style="fill: none; stroke: #a1a1a1; stroke-width: 1.5; stroke-linecap: square"/>
    <g>
     <use xlink:href="#m3dd05e51aa" x="77.707144" y="602.267301" style="fill: #a1a1a1; stroke: #ffffff"/>
     <use xlink:href="#m3dd05e51aa" x="370.98734" y="599.434961" style="fill: #a1a1a1; stroke: #ffffff"/>
     <use xlink:href="#m3dd05e51aa" x="664.267536" y="576.33503" style="fill: #a1a1a1; stroke: #ffffff"/>
     <use xlink:href="#m3dd05e51aa" x="957.547731" y="211.32336" style="fill: #a1a1a1; stroke: #ffffff"/>
    </g>
   </g>
   <g id="line2d_30">
    <path d="M 77.707144 602.338705 
L 370.98734 599.805305 
L 664.267536 557.982317 
L 957.547731 155.841024 
" style="fill: none; stroke: #c3c3c3; stroke-width: 1.5; stroke-linecap: square"/>
    <g>
     <use xlink:href="#ma036a2e977" x="77.707144" y="602.338705" style="fill: #c3c3c3; stroke: #ffffff"/>
     <use xlink:href="#ma036a2e977" x="370.98734" y="599.805305" style="fill: #c3c3c3; stroke: #ffffff"/>
     <use xlink:href="#ma036a2e977" x="664.267536" y="557.982317" style="fill: #c3c3c3; stroke: #ffffff"/>
     <use xlink:href="#ma036a2e977" x="957.547731" y="155.841024" style="fill: #c3c3c3; stroke: #ffffff"/>
    </g>
   </g>
   <g id="line2d_31">
    <path d="M 77.707144 601.653616 
L 370.98734 591.147829 
L 664.267536 485.958739 
L 764.093801 -1 
" style="fill: none; stroke: #008000; stroke-width: 1.5; stroke-linecap: square"/>
    <g>
     <use xlink:href="#m0db1f8f23b" x="77.707144" y="601.653616" style="fill: #008000; stroke: #ffffff"/>
     <use xlink:href="#m0db1f8f23b" x="370.98734" y="591.147829" style="fill: #008000; stroke: #ffffff"/>
     <use xlink:href="#m0db1f8f23b" x="664.267536" y="485.958739" style="fill: #008000; stroke: #ffffff"/>
     <use xlink:href="#m0db1f8f23b" x="764.093801" y="-1" style="fill: #008000; stroke: #ffffff"/>
    </g>
   </g>
   <g id="line2d_32">
    <path d="M 77.707144 602.43355 
L 370.98734 600.772143 
L 664.267536 586.90559 
L 957.547731 450.194304 
" style="fill: none; stroke: #ffff00; stroke-width: 1.5; stroke-linecap: square"/>
    <g>
     <use xlink:href="#m8e570dff68" x="77.707144" y="602.43355" style="fill: #ffff00; stroke: #ffffff"/>
     <use xlink:href="#m8e570dff68" x="370.98734" y="600.772143" style="fill: #ffff00; stroke: #ffffff"/>
     <use xlink:href="#m8e570dff68" x="664.267536" y="586.90559" style="fill: #ffff00; stroke: #ffffff"/>
     <use xlink:href="#m8e570dff68" x="957.547731" y="450.194304" style="fill: #ffff00; stroke: #ffffff"/>
    </g>
   </g>
   <g id="line2d_33">
    <path d="M 77.707144 602.414762 
L 370.98734 600.861513 
L 664.267536 589.431542 
L 957.547731 486.136954 
" style="fill: none; stroke: #ffa500; stroke-width: 1.5; stroke-linecap: square"/>
    <g>
     <use xlink:href="#m1e2f0a45b5" x="77.707144" y="602.414762" style="fill: #ffa500; stroke: #ffffff"/>
     <use xlink:href="#m1e2f0a45b5" x="370.98734" y="600.861513" style="fill: #ffa500; stroke: #ffffff"/>
     <use xlink:href="#m1e2f0a45b5" x="664.267536" y="589.431542" style="fill: #ffa500; stroke: #ffffff"/>
     <use xlink:href="#m1e2f0a45b5" x="957.547731" y="486.136954" style="fill: #ffa500; stroke: #ffffff"/>
    </g>
   </g>
   <g id="line2d_34">
    <path d="M 77.707144 602.487111 
L 370.98734 601.293483 
L 664.267536 591.729223 
L 957.547731 514.068566 
" style="fill: none; stroke: #ff0000; stroke-width: 3; stroke-linecap: square"/>
    <g>
     <use xlink:href="#mf18083443f" x="77.707144" y="602.487111" style="fill: #ff0000; stroke: #ffffff"/>
     <use xlink:href="#mf18083443f" x="370.98734" y="601.293483" style="fill: #ff0000; stroke: #ffffff"/>
     <use xlink:href="#mf18083443f" x="664.267536" y="591.729223" style="fill: #ff0000; stroke: #ffffff"/>
     <use xlink:href="#mf18083443f" x="957.547731" y="514.068566" style="fill: #ff0000; stroke: #ffffff"/>
    </g>
   </g>
  </g>
 </g>
 <defs>
  <clipPath id="p67984805fa">
   <rect x="50.4" y="97.2" width="937.44" height="505.44"/>
  </clipPath>
 </defs>
</svg>
